<svg viewBox="0 0 72 72" xmlns="http://www.w3.org/2000/svg"><path d="m17.1347 58.8989s-2-13.5 10-13.5c3.1918 2.1279 5.9264 3.5984 9 3.5922h-.1247c3.0736.0062 5.4081-2.1643 8.6-4.2922 15.5705 0 10.8 14.2 10.8 14.2" fill="#92d3f5"/><path d="m49.297 58.861v-12.875l-4.491-.784v7.245h-17.877l.002-7.245-4.666.784v12.875z" fill="#61b2e4"/><path d="m67.087 43.423-6.95 16.349h-24.99l6.95-16.349z" fill="#d0cfce"/><path d="m67.303 43.423-6.95 16.349h-.22-8.77l6.95-16.349h8.77z" fill="#9b9b9a"/><path d="m49.1631 33.7883c-2.1131 5.2847-7.4192 8.7024-13.6311 8.7024-5.3551 0-11.31-3.3075-13.4233-8.5922l-.0742-.1813c-.67-1.6576-.5622-3.6865-.5622-5.5835l2.1538-18.7637 6.0076 5.8429a14.3545 14.3545 0 0 1 5.586-1.1239h.6246a14.3545 14.3545 0 0 1 5.586 1.1239l6.5951-6.4229 2.1863 19.6364a14.2672 14.2672 0 0 1 -1.04 5.3657" fill="#f4aa41"/><path d="m35.532 42.4907c6.2312.1985 11.9553-3.3981 14.0684-8.6828l.0651-.1339c.67-1.6576.5626-3.9976.5626-5.8946l-2.2027-18.9894" fill="#e27022"/><path d="m22.652 17.7-.487 4.728 27.132-1.641-.283-2.454z" fill="#b399c8"/><path d="m50.8972 19.6a2 2 0 1 1 -2-2 2.0007 2.0007 0 0 1 2 2" fill="#b399c8"/><path d="m47.0723 24.9748s-8.1678 3.4075-7.7837 3.84c7.8154 7.0159 8.4286-2.8627 7.7837-3.84z" fill="#fff"/><path d="m24.6281 24.9748s7.5569 4.01 7.7837 3.84c-7.5445 7.3839-8.5455-2.2369-7.7837-3.84z" fill="#fff"/><path d="m53.7216 51.7376a3.42 3.42 0 0 1 -2.8489 2c-1.1035 0-1.62-.8955-1.1511-2a3.4212 3.4212 0 0 1 2.849-2c1.1035 0 1.6194.8965 1.151 2" fill="#fff"/><g fill="none" stroke="#000" stroke-linecap="round" stroke-linejoin="round"><path d="m36.8723 48.3986a6.8472 6.8472 0 0 1 -1.0665.0811h.125c-3.0736.0063-5.8081-1.4642-9-3.5921-12 0-10 13-10 13" stroke-width="2"/><path d="m35.467 52.133h-8.538l.002-7.245" stroke-width="2"/><path d="m22.2649 45.7569v12.1097" stroke-width="2"/><path d="m35.147 59.772h24.99l6.95-16.349h-24.99z" stroke-width="2"/><path d="m24.1767 59.7725h10.97" stroke-width="2"/><path d="m38.2936 35.589-2.4434-3.0143" stroke-width="1.8"/><path d="m33.4068 35.589 2.4434-3.0143" stroke-width="1.8"/><path d="m33.4068 32.5747h4.8868" stroke-width="1.8"/><path d="m49.7667 23.869.4387 4.1844a13.664 13.664 0 0 1 -1.0171 5.189" stroke-width="2"/><path d="m22.5121 33.2423a13.6635 13.6635 0 0 1 -1.0171-5.1889l2.138-18.99 6.4492 6.2109a14.175 14.175 0 0 1 5.4626-1.0868h.6108a14.1825 14.1825 0 0 1 5.4632 1.0868l6.4485-6.2109.6655 6.399" stroke-width="2"/><path d="m28.1119 39.7219a14.1207 14.1207 0 0 0 7.4329 2.0969h.6108a14.1191 14.1191 0 0 0 7.4329-2.0969" stroke-width="1.8"/></g><ellipse cx="28.5199" cy="27.752" rx="1.2217" ry="1.2057"/><ellipse cx="43.1805" cy="27.752" rx="1.2217" ry="1.2057"/><path d="m47.0723 24.9474s-8.1678 3.4075-7.7837 3.84c7.8154 7.0159 8.4286-2.8627 7.7837-3.84z" fill="none" stroke="#000" stroke-linecap="round" stroke-linejoin="round" stroke-width="1.6"/><path d="m50.9216 37.1947-5.4977-3.0143" fill="none" stroke="#000" stroke-linecap="round" stroke-linejoin="round" stroke-width="1.6"/><path d="m48.6782 39.8089-5.4977-3.0142" fill="none" stroke="#000" stroke-linecap="round" stroke-linejoin="round" stroke-width="1.6"/><path d="m24.6281 24.9474s7.5569 4.01 7.7837 3.84c-7.5445 7.3838-8.5455-2.2369-7.7837-3.84z" fill="none" stroke="#000" stroke-linecap="round" stroke-linejoin="round" stroke-width="1.6"/><path d="m20.7788 37.1947 5.4977-3.0143" fill="none" stroke="#000" stroke-linecap="round" stroke-linejoin="round" stroke-width="1.6"/><path d="m23.0222 39.8089 5.4977-3.0142" fill="none" stroke="#000" stroke-linecap="round" stroke-linejoin="round" stroke-width="1.6"/><path d="m46.998 18.284-24.346-.584-.487 4.728 24.84-1.502" fill="none" stroke="#000" stroke-linecap="round" stroke-linejoin="round" stroke-width="1.6"/><path d="m50.4972 19.6a2 2 0 1 1 -2-2 2.0007 2.0007 0 0 1 2 2" fill="none" stroke="#000" stroke-linecap="round" stroke-linejoin="round" stroke-width="1.6"/></svg>