<?xml version="1.0" standalone="no"?>
<!DOCTYPE svg PUBLIC "-//W3C//DTD SVG 20010904//EN"
 "http://www.w3.org/TR/2001/REC-SVG-20010904/DTD/svg10.dtd">
<svg version="1.0" xmlns="http://www.w3.org/2000/svg"
 width="700.000000pt" height="700.000000pt" viewBox="0 0 700.000000 700.000000"
 preserveAspectRatio="xMidYMid meet">
<metadata>
Created by potrace 1.14, written by Peter Selinger 2001-2017
</metadata>
<g transform="translate(0.000000,700.000000) scale(0.100000,-0.100000)"
fill="#000000" stroke="none">
<path d="M2275 6211 c-52 -16 -73 -50 -80 -131 -3 -30 -8 -77 -11 -105 -4 -27
-8 -61 -9 -75 -2 -14 -6 -54 -10 -90 -4 -36 -8 -76 -10 -90 -1 -14 -6 -54 -10
-90 -4 -36 -9 -76 -10 -90 -1 -14 -5 -49 -9 -77 -3 -29 -8 -77 -11 -105 -3
-29 -10 -87 -15 -128 -5 -41 -12 -97 -15 -125 -3 -27 -7 -70 -10 -95 -3 -25
-8 -67 -10 -95 -3 -27 -8 -66 -10 -85 -3 -19 -7 -61 -10 -93 -4 -32 -8 -66
-10 -75 -2 -10 -6 -49 -10 -87 -9 -86 -11 -102 -21 -190 -22 -188 1 -390 68
-580 30 -86 45 -113 68 -120 17 -6 77 -102 68 -110 -2 -1 -32 -18 -68 -37 -36
-20 -90 -49 -120 -66 -61 -33 -83 -64 -74 -102 18 -78 69 -79 209 0 59 33 115
62 124 65 11 3 35 -16 73 -59 l57 -63 -105 -58 c-58 -32 -115 -67 -125 -79
-35 -37 -10 -109 42 -120 31 -6 111 30 266 121 l43 25 60 -44 c33 -23 62 -51
65 -60 4 -10 32 -33 63 -52 161 -97 365 -164 582 -192 58 -7 331 -7 367 0 16
3 48 8 73 11 192 25 505 149 570 225 14 16 49 48 79 70 l54 40 91 -51 c186
-102 190 -104 225 -89 40 16 55 43 46 86 -5 29 -15 40 -63 67 -31 17 -70 40
-87 50 -16 9 -42 22 -57 28 -27 10 -38 33 -20 41 5 2 28 28 52 58 23 30 46 54
49 53 3 -1 60 -31 125 -67 132 -73 163 -79 203 -40 20 20 24 31 19 57 -6 30
-32 67 -46 67 -7 0 -150 77 -198 107 l-22 14 25 49 c14 27 34 52 46 55 28 9
62 86 98 224 33 126 44 207 45 326 1 74 -10 213 -19 260 -2 11 -7 52 -10 90
-13 160 -25 181 -115 194 -3 1 -6 16 -7 34 -2 29 2 36 31 49 76 37 136 151
131 251 -6 102 -88 210 -182 238 -50 14 -56 38 -18 63 27 18 54 63 50 86 -1 8
-5 49 -9 90 -11 118 -15 154 -31 293 -3 23 -7 62 -9 87 -3 25 -8 72 -11 105
-8 83 -21 111 -59 129 -32 15 -62 15 -90 -1 -8 -4 -108 -99 -223 -209 -361
-350 -377 -364 -393 -360 -222 67 -334 83 -545 81 -206 -3 -302 -17 -454 -67
l-63 -20 -52 50 c-28 28 -76 74 -107 104 -31 29 -140 134 -242 233 -103 98
-193 182 -199 186 -24 13 -53 17 -73 10z"/>
<path d="M4062 2868 c-16 -5 -35 -14 -41 -22 -6 -7 -60 -130 -121 -272 -113
-269 -125 -288 -187 -300 -32 -6 -33 -5 -33 26 0 22 -9 41 -29 61 -29 29 -31
29 -133 27 -57 -1 -121 1 -143 5 -179 26 -370 110 -615 268 l-113 73 -66 -2
c-318 -10 -548 -98 -735 -280 -137 -133 -252 -374 -285 -597 -21 -137 -23
-160 -22 -284 0 -137 6 -202 21 -241 22 -53 29 -54 388 -56 183 -1 336 -5 340
-8 3 -4 2 -10 -4 -14 -38 -25 -38 -93 1 -131 l25 -26 1778 -2 c1403 -2 1782 0
1802 10 31 15 51 55 191 387 130 308 163 386 195 458 13 29 24 55 24 57 0 5 8
23 50 120 8 17 14 32 15 35 1 3 10 23 19 45 10 22 60 141 113 265 52 124 101
239 109 257 21 47 17 79 -15 115 l-29 33 -1236 0 c-679 0 -1248 -3 -1264 -7z"/>
</g>
</svg>
